<svg width="237" height="38" viewBox="0 0 237 38" fill="none" xmlns="http://www.w3.org/2000/svg">
<path d="M47.9785 30L43.166 14.3184H43.043C43.2161 17.5085 43.3027 19.6367 43.3027 20.7031V30H39.5156V10.0117H45.2852L50.0156 25.2969H50.0977L55.1152 10.0117H60.8848V30H56.9336V20.5391C56.9336 20.0924 56.9382 19.5775 56.9473 18.9941C56.9655 18.4108 57.0293 16.8613 57.1387 14.3457H57.0156L51.8613 30H47.9785ZM75.3086 30L74.502 27.9219H74.3926C73.6908 28.806 72.9661 29.4212 72.2188 29.7676C71.4805 30.1048 70.5143 30.2734 69.3203 30.2734C67.8529 30.2734 66.6953 29.8542 65.8477 29.0156C65.0091 28.1771 64.5898 26.9831 64.5898 25.4336C64.5898 23.8112 65.1549 22.6172 66.2852 21.8516C67.4245 21.0768 69.138 20.6484 71.4258 20.5664L74.0781 20.4844V19.8145C74.0781 18.265 73.2852 17.4902 71.6992 17.4902C70.4779 17.4902 69.0423 17.8594 67.3926 18.5977L66.0117 15.7812C67.7708 14.8607 69.7214 14.4004 71.8633 14.4004C73.9141 14.4004 75.4863 14.847 76.5801 15.7402C77.6738 16.6335 78.2207 17.9915 78.2207 19.8145V30H75.3086ZM74.0781 22.918L72.4648 22.9727C71.2526 23.0091 70.3503 23.2279 69.7578 23.6289C69.1654 24.0299 68.8691 24.6406 68.8691 25.4609C68.8691 26.6367 69.5436 27.2246 70.8926 27.2246C71.8587 27.2246 72.6289 26.9466 73.2031 26.3906C73.7865 25.8346 74.0781 25.0964 74.0781 24.1758V22.918ZM88.9668 26.9512C89.696 26.9512 90.571 26.7917 91.5918 26.4727V29.5762C90.5527 30.041 89.2767 30.2734 87.7637 30.2734C86.0957 30.2734 84.8789 29.8542 84.1133 29.0156C83.3568 28.168 82.9785 26.901 82.9785 25.2148V17.8457H80.9824V16.082L83.2793 14.6875L84.4824 11.4609H87.1484V14.7148H91.4277V17.8457H87.1484V25.2148C87.1484 25.8073 87.3125 26.2448 87.6406 26.5273C87.9779 26.8099 88.4199 26.9512 88.9668 26.9512ZM108.805 30H104.635V21.0723C104.635 18.8665 103.814 17.7637 102.174 17.7637C101.007 17.7637 100.164 18.1602 99.6445 18.9531C99.125 19.7461 98.8652 21.0312 98.8652 22.8086V30H94.6953V8.72656H98.8652V13.0605C98.8652 13.3978 98.8333 14.1908 98.7695 15.4395L98.6738 16.6699H98.8926C99.8223 15.1751 101.299 14.4277 103.322 14.4277C105.118 14.4277 106.48 14.9108 107.41 15.877C108.34 16.8431 108.805 18.2285 108.805 20.0332V30ZM119.428 17.3945C118.544 17.3945 117.851 17.6771 117.35 18.2422C116.848 18.7982 116.561 19.5911 116.488 20.6211H122.34C122.322 19.5911 122.053 18.7982 121.533 18.2422C121.014 17.6771 120.312 17.3945 119.428 17.3945ZM120.016 30.2734C117.555 30.2734 115.632 29.5944 114.246 28.2363C112.861 26.8783 112.168 24.9551 112.168 22.4668C112.168 19.9056 112.806 17.9277 114.082 16.5332C115.367 15.1296 117.14 14.4277 119.4 14.4277C121.561 14.4277 123.242 15.043 124.445 16.2734C125.648 17.5039 126.25 19.2038 126.25 21.373V23.3965H116.393C116.438 24.5814 116.789 25.5065 117.445 26.1719C118.102 26.8372 119.022 27.1699 120.207 27.1699C121.128 27.1699 121.998 27.0742 122.818 26.8828C123.639 26.6914 124.495 26.3861 125.389 25.9668V29.1934C124.66 29.5579 123.88 29.8268 123.051 30C122.221 30.1823 121.21 30.2734 120.016 30.2734ZM140.469 30L139.908 28.0449H139.689C139.243 28.7559 138.609 29.3073 137.789 29.6992C136.969 30.082 136.035 30.2734 134.986 30.2734C133.191 30.2734 131.837 29.7949 130.926 28.8379C130.014 27.8717 129.559 26.4863 129.559 24.6816V14.7148H133.729V23.6426C133.729 24.7454 133.924 25.5749 134.316 26.1309C134.708 26.6777 135.333 26.9512 136.189 26.9512C137.356 26.9512 138.199 26.5638 138.719 25.7891C139.238 25.0052 139.498 23.7109 139.498 21.9062V14.7148H143.668V30H140.469ZM158.311 25.6934C158.311 27.1699 157.773 28.3047 156.697 29.0977C155.622 29.8815 154.081 30.2734 152.076 30.2734C150.062 30.2734 148.444 29.9681 147.223 29.3574V26.582C149 27.4023 150.654 27.8125 152.186 27.8125C154.163 27.8125 155.152 27.2155 155.152 26.0215C155.152 25.6387 155.043 25.3197 154.824 25.0645C154.605 24.8092 154.245 24.5449 153.744 24.2715C153.243 23.998 152.546 23.6882 151.652 23.3418C149.911 22.6673 148.731 21.9928 148.111 21.3184C147.501 20.6439 147.195 19.7689 147.195 18.6934C147.195 17.3991 147.715 16.3965 148.754 15.6855C149.802 14.9655 151.224 14.6055 153.02 14.6055C154.797 14.6055 156.479 14.9655 158.064 15.6855L157.025 18.1055C155.394 17.431 154.022 17.0938 152.91 17.0938C151.215 17.0938 150.367 17.5768 150.367 18.543C150.367 19.0169 150.586 19.418 151.023 19.7461C151.47 20.0742 152.436 20.5254 153.922 21.0996C155.171 21.5827 156.077 22.0247 156.643 22.4258C157.208 22.8268 157.627 23.2917 157.9 23.8203C158.174 24.3398 158.311 24.9642 158.311 25.6934ZM188.908 15.7539C188.908 17.6862 188.252 19.1673 186.939 20.1973C185.627 21.2272 183.768 21.7422 181.361 21.7422H178.271V30H176.877V10.0117H181.771C186.529 10.0117 188.908 11.9258 188.908 15.7539ZM178.271 20.5391H181.02C183.271 20.5391 184.898 20.1699 185.9 19.4316C186.903 18.6842 187.404 17.4766 187.404 15.8086C187.404 14.2682 186.93 13.1289 185.982 12.3906C185.035 11.6432 183.567 11.2695 181.58 11.2695H178.271V20.5391ZM194.268 30H192.914V15.1387H194.268V30ZM192.723 11.0098C192.723 10.1348 193.01 9.69727 193.584 9.69727C193.867 9.69727 194.085 9.8112 194.24 10.0391C194.404 10.2669 194.486 10.5905 194.486 11.0098C194.486 11.4199 194.404 11.7435 194.24 11.9805C194.085 12.2174 193.867 12.3359 193.584 12.3359C193.01 12.3359 192.723 11.8939 192.723 11.0098ZM205.109 14.8516C205.738 14.8516 206.413 14.9154 207.133 15.043L206.873 16.3418C206.253 16.1868 205.611 16.1094 204.945 16.1094C203.678 16.1094 202.639 16.6471 201.828 17.7227C201.017 18.7982 200.611 20.1562 200.611 21.7969V30H199.258V15.1387H200.406L200.543 17.8184H200.639C201.249 16.7246 201.901 15.959 202.594 15.5215C203.286 15.0749 204.125 14.8516 205.109 14.8516ZM216.17 30.2734C214.01 30.2734 212.324 29.6081 211.111 28.2773C209.908 26.9466 209.307 25.0827 209.307 22.6855C209.307 20.3158 209.89 18.4199 211.057 16.998C212.223 15.5671 213.796 14.8516 215.773 14.8516C217.523 14.8516 218.904 15.4622 219.916 16.6836C220.928 17.9049 221.434 19.5638 221.434 21.6602V22.7539H210.729C210.747 24.7956 211.221 26.3542 212.15 27.4297C213.089 28.5052 214.429 29.043 216.17 29.043C217.018 29.043 217.76 28.9837 218.398 28.8652C219.046 28.7467 219.861 28.4915 220.846 28.0996V29.3301C220.007 29.6947 219.232 29.9408 218.521 30.0684C217.811 30.2051 217.027 30.2734 216.17 30.2734ZM215.773 16.0547C214.342 16.0547 213.194 16.5286 212.328 17.4766C211.462 18.4154 210.956 19.7734 210.811 21.5508H219.998C219.998 19.8281 219.624 18.4837 218.877 17.5176C218.13 16.5423 217.095 16.0547 215.773 16.0547ZM234.75 26.1309C234.75 27.4616 234.244 28.487 233.232 29.207C232.221 29.918 230.785 30.2734 228.926 30.2734C226.939 30.2734 225.362 29.9681 224.195 29.3574V27.8945C225.69 28.6419 227.267 29.0156 228.926 29.0156C230.393 29.0156 231.505 28.7741 232.262 28.291C233.027 27.7988 233.41 27.1471 233.41 26.3359C233.41 25.5885 233.105 24.9596 232.494 24.4492C231.893 23.9388 230.899 23.4375 229.514 22.9453C228.028 22.4076 226.984 21.9473 226.383 21.5645C225.781 21.1725 225.326 20.735 225.016 20.252C224.715 19.7598 224.564 19.1628 224.564 18.4609C224.564 17.349 225.029 16.4694 225.959 15.8223C226.898 15.1751 228.206 14.8516 229.883 14.8516C231.487 14.8516 233.009 15.1523 234.449 15.7539L233.943 16.9844C232.485 16.3828 231.132 16.082 229.883 16.082C228.671 16.082 227.709 16.2826 226.998 16.6836C226.287 17.0846 225.932 17.6406 225.932 18.3516C225.932 19.1263 226.205 19.7461 226.752 20.2109C227.308 20.6758 228.388 21.1953 229.992 21.7695C231.332 22.2526 232.307 22.6901 232.918 23.082C233.529 23.4648 233.984 23.9023 234.285 24.3945C234.595 24.8867 234.75 25.4655 234.75 26.1309Z" fill="white"/>
<path d="M164.058 34.2336L172.028 5.99999" stroke="#DD6B20" stroke-width="3"/>
<path d="M15.3239 25.1477C14.3918 25.1519 13.472 24.9261 12.64 24.4888C11.808 24.0516 11.0874 23.4154 10.5374 22.6325L6.70422 24.9228C6.85009 25.0977 7.02277 25.2463 7.21532 25.3625L14.0364 29.4524C14.4351 29.6642 14.8763 29.7747 15.3239 29.7747C15.7716 29.7747 16.2128 29.6642 16.6115 29.4524L23.4326 25.3625C23.6251 25.2463 23.7978 25.0977 23.9437 24.9228L20.1203 22.5916C19.5736 23.3835 18.8534 24.0284 18.0192 24.473C17.1851 24.9175 16.2611 25.1488 15.3239 25.1477Z" fill="white"/>
<path d="M9.32235 18.9756C9.32585 17.5215 9.89101 16.1196 10.9098 15.0378C11.9286 13.9561 13.3297 13.2704 14.8451 13.1118V8.70422C14.6151 8.74981 14.394 8.82892 14.1893 8.93878L7.07845 12.848C6.69195 13.0946 6.37058 13.4232 6.13952 13.8081C5.90842 14.193 5.7739 14.6236 5.74646 15.0664V22.8847C5.74962 23.1103 5.78755 23.3343 5.85914 23.5493L9.85519 21.3504C9.50576 20.6029 9.32427 19.794 9.32235 18.9756Z" fill="white"/>
<path d="M23.6396 12.8452L16.903 8.93863C16.7091 8.82883 16.4996 8.74976 16.2817 8.70422V13.0991C17.1969 13.2035 18.075 13.5225 18.8452 14.0307C19.6154 14.5388 20.2563 15.2218 20.7162 16.0247C21.1761 16.8276 21.4422 17.7279 21.493 18.6532C21.5439 19.5785 21.3781 20.5028 21.009 21.3518L24.7947 23.5493C24.8625 23.3344 24.8985 23.1106 24.9015 22.8852V15.072C24.8769 14.6278 24.7502 14.1955 24.5312 13.8091C24.3122 13.4226 24.007 13.0927 23.6396 12.8452Z" fill="white"/>
<path d="M28.5464 8.92982L17.4255 2.49817C16.7733 2.17057 16.0537 2 15.3239 2C14.5942 2 13.8747 2.17057 13.2225 2.49817L2.10149 8.92982C1.49107 9.32805 0.98284 9.86444 0.617747 10.4956C0.252702 11.1268 0.0410873 11.8351 0 12.5633V25.4266C0.0403211 26.1563 0.251553 26.8664 0.616598 27.4993C0.981643 28.1323 1.4903 28.6704 2.10149 29.0702L13.2225 35.502C13.8747 35.8295 14.5942 36 15.3239 36C16.0537 36 16.7733 35.8295 17.4255 35.502L28.5464 29.0702C29.1576 28.6704 29.6662 28.1323 30.0313 27.4993C30.3963 26.8664 30.6076 26.1563 30.6479 25.4266V12.5633C30.6068 11.8351 30.3952 11.1268 30.0301 10.4956C29.665 9.86444 29.1568 9.32805 28.5464 8.92982ZM27.1185 23.947C27.0859 24.5076 26.9224 25.0527 26.6413 25.5386C26.3602 26.0246 25.9692 26.4378 25.4997 26.7452L16.9327 31.6972C16.4323 31.9502 15.8795 32.082 15.3189 32.082C14.7583 32.082 14.2055 31.9502 13.7051 31.6972L5.14822 26.7452C4.67869 26.4378 4.28769 26.0246 4.00659 25.5386C3.72544 25.0527 3.562 24.5076 3.52934 23.947V14.053C3.562 13.4924 3.72544 12.9473 4.00659 12.4614C4.28769 11.9754 4.67869 11.5622 5.14822 11.2548L13.695 6.30282C14.1954 6.04983 14.7482 5.918 15.3089 5.918C15.8695 5.918 16.4223 6.04983 16.9227 6.30282L25.4896 11.2548C25.961 11.5611 26.354 11.9738 26.6369 12.4598C26.9198 12.9458 27.0848 13.4915 27.1185 14.053V23.947Z" fill="white"/>
<path d="M11.0141 19C11.0141 19.805 11.2668 20.592 11.7404 21.2614C12.214 21.9308 12.8871 22.4525 13.6747 22.7606C14.4622 23.0686 15.3287 23.1492 16.1648 22.9922C17.0008 22.8351 17.7687 22.4475 18.3715 21.8782C18.9742 21.309 19.3847 20.5837 19.551 19.7941C19.7173 19.0045 19.632 18.1861 19.3057 17.4423C18.9795 16.6985 18.4272 16.0628 17.7184 15.6156C17.0097 15.1683 16.1764 14.9296 15.324 14.9296C14.1809 14.9296 13.0847 15.3584 12.2765 16.1218C11.4682 16.8851 11.0141 17.9205 11.0141 19Z" fill="white"/>
</svg>
