<svg width="630" height="572" viewBox="0 0 630 572" fill="none" xmlns="http://www.w3.org/2000/svg">
<g filter="url(#filter0_di)">
<path d="M364.883 188.834C374.647 179.071 393.373 174.053 406.71 177.626L550.251 216.082C563.588 219.655 566.484 230.466 556.721 240.229L288.239 508.691C278.475 518.453 259.749 523.471 246.412 519.898L102.871 481.442C89.5342 477.869 86.6375 467.058 96.4009 457.296L364.883 188.834Z" fill="url(#paint0_linear)" shape-rendering="auto"/>
</g>
<path fill-rule="evenodd" clip-rule="evenodd" d="M549.544 216.789L406.003 178.333C393.2 174.903 375.222 179.72 365.849 189.092L97.3669 457.554C87.994 466.927 90.7748 477.305 103.578 480.735L247.119 519.191C259.922 522.621 277.9 517.804 287.273 508.432L555.755 239.97C565.128 230.598 562.347 220.219 549.544 216.789ZM406.71 177.626C393.373 174.053 374.647 179.071 364.883 188.834L96.4009 457.296C86.6375 467.058 89.5342 477.869 102.871 481.442L246.412 519.898C259.749 523.471 278.475 518.453 288.239 508.691L556.721 240.229C566.484 230.466 563.588 219.655 550.251 216.082L406.71 177.626Z" fill="url(#paint1_linear)" fill-opacity="0.1"/>
<g filter="url(#filter1_b)">
<rect width="198.603" height="429.677" rx="25" transform="matrix(0.965936 0.258783 -0.707133 0.70708 373.313 111.964)" fill="#16292E" fill-opacity="0.4"/>
<rect x="0.129401" y="0.482931" width="197.603" height="428.677" rx="24.5" transform="matrix(0.965936 0.258783 -0.707133 0.70708 373.659 112.072)" stroke="white" stroke-opacity="0.1"/>
</g>
<path d="M341.761 71.3738C351.525 61.6111 370.251 56.5934 383.588 60.1664L527.129 98.6223C540.466 102.195 543.362 113.006 533.599 122.769L265.117 391.231C255.353 400.994 236.627 406.011 223.29 402.438L79.749 363.983C66.4122 360.409 63.5155 349.599 73.279 339.836L341.761 71.3738Z" fill="#ADADAD" fill-opacity="0.06"/>
<path fill-rule="evenodd" clip-rule="evenodd" d="M526.422 99.3293L382.881 60.8735C370.078 57.4434 352.1 62.2604 342.727 71.6326L74.2449 340.095C64.872 349.467 67.6529 359.845 80.4562 363.275L223.997 401.731C236.8 405.161 254.778 400.344 264.151 390.972L532.633 122.51C542.006 113.138 539.225 102.759 526.422 99.3293ZM383.588 60.1664C370.251 56.5934 351.525 61.6111 341.761 71.3738L73.279 339.836C63.5155 349.599 66.4122 360.409 79.749 363.983L223.29 402.438C236.627 406.011 255.353 400.994 265.117 391.231L533.599 122.769C543.362 113.006 540.466 102.195 527.129 98.6223L383.588 60.1664Z" fill="white" fill-opacity="0.1"/>
<g filter="url(#filter2_d)">
<rect width="20.1928" height="20.1928" rx="4" transform="matrix(0.965936 0.258783 -0.707134 0.70708 92.4607 298.484)" fill="#D1D1D1" fill-opacity="0.15" shape-rendering="auto"/>
</g>
<g filter="url(#filter3_d)">
<mask id="path-8-inside-1" fill="white">
<path fill-rule="evenodd" clip-rule="evenodd" d="M238.125 330.623L97.7467 293.015C95.2888 292.356 92.266 292.478 89.3629 293.256C86.4599 294.034 83.7812 295.44 81.9819 297.239L69.3514 309.868C67.5475 311.672 67.096 313.379 67.4392 314.66C67.7825 315.941 69.0269 317.194 71.4911 317.854L211.869 355.463C214.327 356.121 217.35 355.999 220.253 355.221C223.156 354.444 225.835 353.038 227.634 351.238L240.264 338.609C242.068 336.805 242.52 335.098 242.177 333.817C241.833 332.536 240.589 331.283 238.125 330.623ZM98.0055 292.049C92.6708 290.62 85.1802 292.627 81.2748 296.532L68.6443 309.161C64.7389 313.066 65.8976 317.391 71.2323 318.82L211.61 356.428C216.945 357.858 224.436 355.851 228.341 351.945L240.971 339.316C244.877 335.411 243.718 331.087 238.383 329.657L98.0055 292.049Z"/>
</mask>
<path fill-rule="evenodd" clip-rule="evenodd" d="M238.125 330.623L97.7467 293.015C95.2888 292.356 92.266 292.478 89.3629 293.256C86.4599 294.034 83.7812 295.44 81.9819 297.239L69.3514 309.868C67.5475 311.672 67.096 313.379 67.4392 314.66C67.7825 315.941 69.0269 317.194 71.4911 317.854L211.869 355.463C214.327 356.121 217.35 355.999 220.253 355.221C223.156 354.444 225.835 353.038 227.634 351.238L240.264 338.609C242.068 336.805 242.52 335.098 242.177 333.817C241.833 332.536 240.589 331.283 238.125 330.623ZM98.0055 292.049C92.6708 290.62 85.1802 292.627 81.2748 296.532L68.6443 309.161C64.7389 313.066 65.8976 317.391 71.2323 318.82L211.61 356.428C216.945 357.858 224.436 355.851 228.341 351.945L240.971 339.316C244.877 335.411 243.718 331.087 238.383 329.657L98.0055 292.049Z" fill="url(#paint2_linear)" shape-rendering="auto"/>
<path d="M97.7467 293.015L97.4879 293.981L97.4879 293.981L97.7467 293.015ZM238.125 330.623L238.383 329.657L238.383 329.657L238.125 330.623ZM89.3629 293.256L89.6218 294.222L89.6218 294.222L89.3629 293.256ZM81.9819 297.239L81.2748 296.532L81.2748 296.532L81.9819 297.239ZM69.3514 309.868L70.0585 310.576L70.0585 310.576L69.3514 309.868ZM67.4392 314.66L68.4052 314.401L68.4052 314.401L67.4392 314.66ZM71.4911 317.854L71.2323 318.82L71.2323 318.82L71.4911 317.854ZM211.869 355.463L211.61 356.428L211.61 356.428L211.869 355.463ZM220.253 355.221L220.512 356.187L220.512 356.187L220.253 355.221ZM227.634 351.238L228.341 351.945L228.341 351.945L227.634 351.238ZM240.264 338.609L240.971 339.316L240.971 339.316L240.264 338.609ZM81.2748 296.532L81.9819 297.239L81.9819 297.239L81.2748 296.532ZM98.0055 292.049L97.7467 293.015L98.0055 292.049ZM68.6443 309.161L67.9373 308.454L67.9373 308.454L68.6443 309.161ZM71.2323 318.82L71.4911 317.854L71.4911 317.854L71.2323 318.82ZM211.61 356.428L211.351 357.394L211.351 357.394L211.61 356.428ZM228.341 351.945L229.048 352.653L229.048 352.653L228.341 351.945ZM240.971 339.316L240.264 338.609L240.264 338.609L240.971 339.316ZM238.383 329.657L238.642 328.691L238.642 328.691L238.383 329.657ZM97.4879 293.981L237.866 331.589L238.383 329.657L98.0055 292.049L97.4879 293.981ZM89.6218 294.222C92.4002 293.477 95.2394 293.378 97.4879 293.981L98.0055 292.049C95.3382 291.334 92.1318 291.479 89.1041 292.29L89.6218 294.222ZM82.6889 297.946C84.335 296.3 86.8434 294.966 89.6218 294.222L89.1041 292.29C86.0764 293.101 83.2274 294.579 81.2748 296.532L82.6889 297.946ZM70.0585 310.576L82.6889 297.946L81.2748 296.532L68.6443 309.161L70.0585 310.576ZM68.4052 314.401C68.1864 313.585 68.4054 312.229 70.0585 310.576L68.6443 309.161C66.6895 311.116 66.0055 313.173 66.4733 314.919L68.4052 314.401ZM71.7499 316.888C69.4918 316.283 68.6239 315.218 68.4052 314.401L66.4733 314.919C66.9411 316.665 68.5621 318.105 71.2323 318.82L71.7499 316.888ZM212.128 354.497L71.7499 316.888L71.2323 318.82L211.61 356.428L212.128 354.497ZM219.994 354.255C217.216 355 214.376 355.099 212.128 354.497L211.61 356.428C214.278 357.143 217.484 356.999 220.512 356.187L219.994 354.255ZM226.927 350.531C225.281 352.177 222.772 353.511 219.994 354.255L220.512 356.187C223.539 355.376 226.388 353.898 228.341 351.945L226.927 350.531ZM239.557 337.902L226.927 350.531L228.341 351.945L240.971 339.316L239.557 337.902ZM241.211 334.076C241.429 334.892 241.21 336.249 239.557 337.902L240.971 339.316C242.926 337.361 243.61 335.304 243.142 333.558L241.211 334.076ZM237.866 331.589C240.124 332.194 240.992 333.259 241.211 334.076L243.142 333.558C242.675 331.812 241.054 330.373 238.383 329.657L237.866 331.589ZM81.9819 297.239C83.7812 295.44 86.4599 294.034 89.3629 293.256C92.266 292.478 95.2888 292.356 97.7467 293.015L98.2643 291.083C95.3875 290.312 91.9976 290.479 88.8453 291.324C85.693 292.169 82.6737 293.719 80.5677 295.825L81.9819 297.239ZM69.3514 309.868L81.9819 297.239L80.5677 295.825L67.9373 308.454L69.3514 309.868ZM71.4911 317.854C69.0269 317.194 67.7825 315.941 67.4392 314.66C67.096 313.379 67.5475 311.672 69.3514 309.868L67.9373 308.454C65.8358 310.555 64.914 312.963 65.5074 315.178C66.1008 317.393 68.103 319.017 70.9736 319.786L71.4911 317.854ZM211.869 355.463L71.4911 317.854L70.9736 319.786L211.351 357.394L211.869 355.463ZM227.634 351.238C225.835 353.038 223.156 354.444 220.253 355.221C217.35 355.999 214.327 356.121 211.869 355.463L211.351 357.394C214.228 358.165 217.618 357.998 220.77 357.153C223.923 356.309 226.942 354.758 229.048 352.653L227.634 351.238ZM240.264 338.609L227.634 351.238L229.048 352.653L241.679 340.023L240.264 338.609ZM238.125 330.623C240.589 331.283 241.833 332.536 242.177 333.817C242.52 335.098 242.068 336.805 240.264 338.609L241.678 340.023C243.78 337.922 244.702 335.514 244.108 333.299C243.515 331.085 241.513 329.46 238.642 328.691L238.125 330.623ZM97.7467 293.015L238.125 330.623L238.642 328.691L98.2643 291.083L97.7467 293.015Z" fill="white" mask="url(#path-8-inside-1)"/>
</g>
<g filter="url(#filter4_d)">
<rect width="20.1928" height="20.1928" rx="4" transform="matrix(0.965936 0.258783 -0.707134 0.70708 122.328 306.485)" fill="#D1D1D1" fill-opacity="0.15" shape-rendering="auto"/>
</g>
<g filter="url(#filter5_d)">
<rect width="20.1928" height="20.1928" rx="4" transform="matrix(0.965936 0.258783 -0.707134 0.70708 182.062 322.488)" fill="#D1D1D1" fill-opacity="0.15" shape-rendering="auto"/>
</g>
<g filter="url(#filter6_d)">
<rect width="20.1928" height="20.1928" rx="4" transform="matrix(0.965936 0.258783 -0.707134 0.70708 211.929 330.49)" fill="#D1D1D1" fill-opacity="0.15" shape-rendering="auto"/>
</g>
<g filter="url(#filter7_d)">
<rect width="20.1928" height="20.1928" rx="4" transform="matrix(0.965936 0.258783 -0.707134 0.70708 160.519 300.614)" fill="#646D70"/>
</g>
<g filter="url(#filter8_d)">
<rect width="192.562" height="149.519" rx="10" transform="matrix(0.965936 0.258783 -0.707134 0.70708 207.174 159.144)" fill="#C4C4C4" fill-opacity="0.15" shape-rendering="auto"/>
</g>
<path d="M294.43 241.13L317.312 234.999C319.926 234.299 322.372 234.954 322.776 236.463L327.437 253.855C327.631 254.58 327.318 255.408 326.568 256.158L315.006 267.719C313.444 269.281 310.448 270.084 308.314 269.512L241.641 251.65C239.507 251.078 239.043 249.349 240.606 247.787L249.448 238.944M326.678 256.049L363.816 218.913C365.378 217.351 364.915 215.621 362.781 215.05L296.108 197.187C293.974 196.616 290.977 197.419 289.415 198.981L252.387 236.006C249.867 238.526 252.767 240.903 256.982 239.773L286.85 231.77C289.463 231.07 291.91 231.725 292.314 233.234L296.974 250.627C297.169 251.351 297.853 251.912 298.878 252.187L319.986 257.842C322.12 258.414 325.116 257.611 326.678 256.049ZM307.856 217.599C304.633 220.821 298.451 222.478 294.049 221.298C289.646 220.119 288.69 216.55 291.913 213.327C295.136 210.105 301.318 208.448 305.72 209.628C310.123 210.807 311.079 214.376 307.856 217.599Z" stroke="white" stroke-opacity="0.4" stroke-width="3" stroke-linecap="round" stroke-linejoin="round"/>
<path d="M158.259 229.539L158.193 230.163L153.324 230.763L155.184 233.171L154.211 233.538L152.212 230.864L152.849 230.228L158.259 229.539Z" fill="white"/>
<path d="M163.691 229.363C163.884 229.415 163.995 229.5 164.024 229.618C164.055 229.737 164.009 229.859 163.884 229.984C163.754 230.114 163.585 230.207 163.377 230.265C163.173 230.321 162.975 230.323 162.782 230.271C162.592 230.221 162.481 230.135 162.449 230.016C162.423 229.896 162.475 229.771 162.604 229.641C162.729 229.516 162.893 229.426 163.096 229.369C163.303 229.314 163.501 229.312 163.691 229.363ZM162.599 231.33L159.389 234.54L160.804 234.919L160.288 235.435L156.395 234.392L156.911 233.876L158.462 234.291L161.156 231.597L159.654 231.195L160.17 230.679L162.599 231.33Z" fill="white"/>
<path d="M169.238 232.996C169.412 233.043 169.546 233.115 169.641 233.212C169.739 233.31 169.759 233.447 169.702 233.622C169.646 233.796 169.477 234.024 169.195 234.307L166.423 237.079L165.577 236.852L168.25 234.179C168.467 233.963 168.604 233.802 168.659 233.697C168.72 233.591 168.666 233.515 168.495 233.469C168.353 233.432 168.18 233.425 167.975 233.451C167.772 233.478 167.531 233.547 167.251 233.661L164.38 236.531L163.568 236.314L166.241 233.641C166.458 233.424 166.594 233.264 166.65 233.159C166.711 233.053 166.657 232.977 166.486 232.931C166.341 232.892 166.168 232.886 165.965 232.913C165.763 232.939 165.522 233.009 165.242 233.122L162.371 235.993L161.525 235.767L165.252 232.04L165.967 232.232L165.607 232.665C165.893 232.559 166.169 232.48 166.437 232.429C166.707 232.379 166.966 232.388 167.214 232.454C167.407 232.506 167.552 232.588 167.648 232.7C167.747 232.813 167.742 232.973 167.633 233.18C167.915 233.074 168.19 232.999 168.456 232.957C168.723 232.915 168.984 232.928 169.238 232.996Z" fill="white"/>
<path d="M176.15 234.413L175.82 235.087C175.558 235.079 175.297 235.05 175.038 234.998C174.783 234.948 174.508 234.883 174.215 234.805C174.62 235.164 174.607 235.558 174.178 235.987C173.81 236.355 173.334 236.611 172.748 236.756C172.165 236.902 171.568 236.893 170.956 236.729C170.795 236.686 170.663 236.644 170.56 236.605C170.459 236.563 170.369 236.516 170.289 236.465C170.04 236.506 169.845 236.597 169.704 236.738C169.621 236.821 169.596 236.904 169.627 236.987C169.66 237.067 169.808 237.143 170.068 237.213L170.971 237.455C171.322 237.549 171.59 237.677 171.774 237.84C171.961 238.004 172.056 238.184 172.058 238.382C172.063 238.578 171.969 238.772 171.775 238.965C171.405 239.335 170.905 239.562 170.276 239.644C169.647 239.73 168.935 239.666 168.14 239.453C167.58 239.303 167.181 239.142 166.944 238.971C166.71 238.801 166.609 238.614 166.641 238.41C166.677 238.208 166.821 237.98 167.073 237.728L167.908 237.952C167.769 238.091 167.692 238.215 167.676 238.325C167.659 238.436 167.727 238.54 167.881 238.635C168.032 238.732 168.293 238.83 168.663 238.93C169.211 239.076 169.655 239.132 169.995 239.098C170.336 239.064 170.601 238.951 170.792 238.76C170.96 238.593 170.986 238.439 170.87 238.297C170.752 238.158 170.535 238.046 170.22 237.961L169.326 237.722C168.869 237.6 168.603 237.439 168.529 237.24C168.458 237.041 168.517 236.848 168.705 236.659C168.967 236.398 169.374 236.227 169.927 236.148C169.572 235.772 169.629 235.35 170.098 234.881C170.353 234.626 170.665 234.424 171.034 234.275C171.409 234.125 171.808 234.036 172.231 234.009C172.654 233.982 173.069 234.022 173.475 234.131C173.896 234.244 174.257 234.323 174.555 234.367C174.854 234.411 175.128 234.434 175.376 234.434C175.624 234.435 175.882 234.428 176.15 234.413ZM172.999 234.613C172.615 234.511 172.253 234.512 171.91 234.618C171.574 234.722 171.285 234.894 171.045 235.134C170.799 235.379 170.695 235.604 170.732 235.808C170.769 236.012 170.98 236.166 171.367 236.269C171.708 236.361 172.042 236.358 172.368 236.26C172.695 236.162 172.99 235.981 173.254 235.717C173.798 235.173 173.713 234.805 172.999 234.613Z" fill="white"/>
<path d="M178.142 234.866L180.183 237.547L179.543 238.186L174.171 238.886L174.185 238.266L179.061 237.658L177.197 235.254L178.142 234.866Z" fill="white"/>
<path d="M153.56 241.379L153.044 241.895C152.699 241.803 152.372 241.764 152.063 241.78C151.759 241.794 151.516 241.91 151.335 242.127L150.143 243.565C149.874 243.891 149.574 244.105 149.243 244.207C148.918 244.308 148.554 244.335 148.153 244.287C148.473 244.433 148.646 244.6 148.673 244.79C148.706 244.978 148.535 245.229 148.163 245.545L146.583 246.879C146.342 247.083 146.298 247.254 146.452 247.391C146.608 247.528 146.858 247.643 147.203 247.735L146.687 248.251C146.287 248.145 145.96 248.015 145.704 247.863C145.448 247.71 145.315 247.528 145.307 247.317C145.301 247.106 145.466 246.859 145.803 246.576L147.282 245.336C147.467 245.179 147.577 245.037 147.611 244.909C147.651 244.779 147.59 244.658 147.429 244.546C147.27 244.432 146.987 244.32 146.581 244.211L147.126 243.667C147.532 243.776 147.869 243.832 148.139 243.835C148.409 243.839 148.634 243.796 148.813 243.706C148.996 243.618 149.158 243.488 149.301 243.317L150.406 241.973C150.656 241.666 150.95 241.453 151.289 241.335C151.628 241.217 151.991 241.168 152.379 241.188C152.767 241.208 153.161 241.272 153.56 241.379Z" fill="white"/>
<path d="M158.308 243.417L159.154 243.747L153.928 248.972L153.112 248.754L153.512 248.256C152.774 248.536 152.106 248.596 151.507 248.436C151.069 248.318 150.788 248.14 150.664 247.901C150.546 247.66 150.564 247.375 150.717 247.045C150.871 246.716 151.141 246.358 151.528 245.971C151.905 245.594 152.319 245.281 152.769 245.031C153.224 244.779 153.685 244.608 154.151 244.518C154.62 244.428 155.066 244.44 155.488 244.553C156.035 244.7 156.336 244.96 156.391 245.333L158.308 243.417ZM155.195 245.152C154.796 245.045 154.37 245.079 153.918 245.253C153.469 245.429 153.004 245.757 152.523 246.238C152.044 246.716 151.788 247.097 151.753 247.381C151.722 247.665 151.893 247.858 152.267 247.958C152.534 248.029 152.819 248.036 153.123 247.977C153.433 247.916 153.729 247.828 154.012 247.713L155.833 245.892C155.842 245.715 155.792 245.563 155.684 245.435C155.58 245.306 155.417 245.211 155.195 245.152Z" fill="white"/>
<path d="M160.378 249.615C160.229 249.764 160.153 249.881 160.149 249.966C160.147 250.05 160.199 250.126 160.305 250.196L159.621 250.605C159.41 250.522 159.258 250.417 159.164 250.29C159.074 250.164 159.071 250.008 159.155 249.821C158.797 249.946 158.434 250.015 158.067 250.027C157.7 250.039 157.352 250.002 157.023 249.914C156.512 249.776 156.214 249.562 156.129 249.271C156.045 248.979 156.177 248.66 156.523 248.314C156.91 247.927 157.413 247.685 158.032 247.588C158.657 247.49 159.358 247.545 160.134 247.752L160.873 247.95L161.156 247.668C161.413 247.411 161.491 247.2 161.39 247.036C161.292 246.872 161.058 246.74 160.688 246.641C160.517 246.596 160.301 246.557 160.038 246.526C159.779 246.495 159.486 246.478 159.159 246.474L159.418 245.915C159.817 245.912 160.181 245.93 160.508 245.97C160.836 246.01 161.125 246.064 161.376 246.131C162.03 246.306 162.409 246.547 162.515 246.853C162.625 247.16 162.491 247.502 162.114 247.879L160.378 249.615ZM157.793 249.474C158.028 249.537 158.3 249.553 158.609 249.522C158.921 249.492 159.227 249.416 159.529 249.294L160.431 248.392L159.755 248.211C159.217 248.067 158.768 248.032 158.409 248.106C158.051 248.178 157.757 248.329 157.526 248.56C157.083 249.003 157.172 249.308 157.793 249.474Z" fill="white"/>
<path d="M165.886 251.934C165.621 251.97 165.337 251.979 165.033 251.961C164.73 251.945 164.449 251.903 164.192 251.834C163.625 251.682 163.299 251.457 163.213 251.159C163.13 250.862 163.262 250.541 163.609 250.194L165.744 248.059L164.59 247.749L165.099 247.24L166.254 247.55L167.095 246.708L168.104 246.875L167.181 247.798L168.92 248.264L168.304 248.745L166.672 248.307L164.543 250.435C164.338 250.641 164.255 250.814 164.293 250.956C164.334 251.098 164.522 251.214 164.857 251.304C165.043 251.354 165.231 251.385 165.419 251.396C165.613 251.407 165.805 251.403 165.995 251.385L165.886 251.934Z" fill="white"/>
<path d="M171.961 252.719C171.813 252.867 171.736 252.984 171.733 253.07C171.731 253.153 171.783 253.23 171.888 253.3L171.204 253.708C170.994 253.625 170.841 253.52 170.748 253.393C170.657 253.267 170.654 253.111 170.739 252.925C170.381 253.05 170.018 253.119 169.651 253.131C169.283 253.143 168.936 253.105 168.607 253.017C168.095 252.88 167.797 252.665 167.713 252.374C167.629 252.082 167.76 251.764 168.107 251.417C168.493 251.031 168.996 250.789 169.616 250.692C170.241 250.593 170.942 250.648 171.718 250.856L172.457 251.054L172.739 250.771C172.996 250.514 173.074 250.303 172.973 250.139C172.876 249.975 172.642 249.844 172.272 249.745C172.101 249.699 171.884 249.66 171.622 249.629C171.363 249.598 171.07 249.581 170.743 249.577L171.001 249.019C171.401 249.015 171.764 249.033 172.092 249.073C172.419 249.113 172.709 249.167 172.96 249.234C173.613 249.409 173.993 249.65 174.099 249.956C174.208 250.264 174.074 250.606 173.697 250.983L171.961 252.719ZM169.377 252.578C169.612 252.641 169.884 252.657 170.192 252.626C170.504 252.596 170.811 252.52 171.113 252.397L172.015 251.496L171.338 251.315C170.801 251.171 170.352 251.135 169.992 251.209C169.635 251.281 169.341 251.432 169.11 251.663C168.667 252.106 168.756 252.411 169.377 252.578Z" fill="white"/>
<path d="M174.797 253.846C174.976 253.667 175.212 253.537 175.504 253.457C175.8 253.378 176.072 253.372 176.32 253.438C176.574 253.506 176.724 253.626 176.77 253.796C176.815 253.967 176.749 254.142 176.57 254.321C176.388 254.502 176.148 254.634 175.85 254.715C175.553 254.797 175.276 254.804 175.022 254.736C174.774 254.669 174.628 254.549 174.585 254.376C174.545 254.204 174.616 254.027 174.797 253.846Z" fill="white"/>
<path d="M186.421 250.693C186.614 250.745 186.725 250.83 186.753 250.948C186.785 251.067 186.739 251.189 186.614 251.314C186.484 251.444 186.315 251.538 186.106 251.595C185.903 251.651 185.705 251.654 185.512 251.602C185.322 251.551 185.211 251.466 185.179 251.347C185.153 251.226 185.204 251.101 185.334 250.971C185.459 250.847 185.623 250.756 185.826 250.7C186.032 250.645 186.231 250.642 186.421 250.693ZM185.329 252.66L182.119 255.87L183.534 256.249L183.018 256.766L179.125 255.723L179.641 255.207L181.191 255.622L183.886 252.928L182.384 252.525L182.9 252.009L185.329 252.66Z" fill="white"/>
<path d="M191.968 254.327C192.142 254.373 192.276 254.445 192.371 254.542C192.469 254.64 192.489 254.777 192.431 254.953C192.376 255.126 192.207 255.355 191.924 255.637L189.152 258.409L188.307 258.183L190.98 255.51C191.197 255.293 191.333 255.132 191.389 255.028C191.45 254.922 191.395 254.846 191.225 254.8C191.083 254.762 190.91 254.756 190.704 254.782C190.502 254.808 190.261 254.878 189.98 254.991L187.109 257.862L186.298 257.644L188.971 254.972C189.188 254.755 189.324 254.594 189.38 254.489C189.441 254.383 189.386 254.307 189.216 254.262C189.071 254.223 188.897 254.217 188.695 254.243C188.493 254.27 188.252 254.34 187.971 254.453L185.1 257.324L184.255 257.097L187.982 253.371L188.697 253.562L188.337 253.995C188.623 253.889 188.899 253.811 189.166 253.76C189.437 253.71 189.696 253.718 189.944 253.784C190.137 253.836 190.282 253.918 190.378 254.031C190.477 254.144 190.472 254.304 190.363 254.511C190.645 254.404 190.919 254.33 191.186 254.288C191.453 254.245 191.713 254.258 191.968 254.327Z" fill="white"/>
<path d="M195.129 258.925C194.98 259.074 194.904 259.191 194.9 259.277C194.898 259.36 194.95 259.436 195.056 259.507L194.372 259.915C194.161 259.832 194.009 259.727 193.915 259.6C193.825 259.474 193.822 259.318 193.906 259.131C193.548 259.257 193.186 259.325 192.818 259.337C192.451 259.35 192.103 259.312 191.775 259.224C191.263 259.087 190.965 258.872 190.88 258.581C190.796 258.289 190.928 257.97 191.274 257.624C191.661 257.237 192.164 256.995 192.783 256.898C193.408 256.8 194.109 256.855 194.885 257.063L195.624 257.261L195.907 256.978C196.164 256.721 196.242 256.51 196.141 256.346C196.043 256.182 195.809 256.051 195.439 255.951C195.268 255.906 195.052 255.867 194.789 255.836C194.53 255.805 194.237 255.788 193.91 255.784L194.169 255.226C194.568 255.222 194.932 255.24 195.259 255.28C195.587 255.32 195.876 255.374 196.127 255.441C196.781 255.616 197.16 255.857 197.266 256.163C197.376 256.47 197.242 256.812 196.865 257.19L195.129 258.925ZM192.544 258.784C192.78 258.847 193.051 258.863 193.36 258.833C193.672 258.803 193.978 258.726 194.28 258.604L195.182 257.702L194.506 257.521C193.968 257.377 193.519 257.342 193.16 257.416C192.802 257.488 192.508 257.639 192.277 257.87C191.834 258.313 191.923 258.618 192.544 258.784Z" fill="white"/>
<path d="M204.672 257.295L204.341 257.969C204.079 257.961 203.819 257.932 203.56 257.881C203.304 257.83 203.03 257.765 202.737 257.687C203.141 258.046 203.129 258.44 202.7 258.869C202.332 259.237 201.855 259.493 201.269 259.638C200.687 259.784 200.09 259.775 199.478 259.611C199.317 259.568 199.185 259.526 199.082 259.487C198.981 259.445 198.89 259.398 198.811 259.347C198.562 259.388 198.367 259.479 198.225 259.621C198.143 259.703 198.117 259.786 198.148 259.869C198.182 259.95 198.329 260.025 198.59 260.095L199.493 260.337C199.844 260.431 200.112 260.559 200.296 260.722C200.483 260.886 200.578 261.067 200.58 261.264C200.585 261.46 200.49 261.654 200.297 261.848C199.927 262.218 199.427 262.444 198.798 262.526C198.169 262.612 197.457 262.548 196.662 262.335C196.102 262.185 195.703 262.024 195.466 261.853C195.232 261.683 195.131 261.496 195.163 261.293C195.198 261.09 195.342 260.862 195.594 260.61L196.43 260.834C196.291 260.973 196.214 261.097 196.198 261.207C196.18 261.318 196.248 261.422 196.402 261.517C196.554 261.614 196.815 261.713 197.185 261.812C197.732 261.958 198.176 262.015 198.517 261.98C198.857 261.946 199.123 261.833 199.314 261.643C199.481 261.475 199.507 261.321 199.392 261.179C199.274 261.04 199.057 260.928 198.741 260.844L197.848 260.604C197.391 260.482 197.125 260.321 197.051 260.122C196.979 259.923 197.038 259.73 197.227 259.541C197.488 259.28 197.896 259.109 198.448 259.03C198.093 258.654 198.151 258.232 198.62 257.763C198.874 257.508 199.186 257.306 199.556 257.157C199.931 257.007 200.33 256.918 200.753 256.891C201.176 256.864 201.59 256.905 201.996 257.013C202.418 257.126 202.778 257.205 203.077 257.249C203.376 257.293 203.649 257.316 203.898 257.317C204.146 257.317 204.404 257.31 204.672 257.295ZM201.52 257.495C201.137 257.393 200.774 257.394 200.432 257.5C200.095 257.604 199.807 257.776 199.566 258.016C199.321 258.262 199.217 258.486 199.254 258.69C199.29 258.894 199.502 259.048 199.888 259.152C200.23 259.243 200.564 259.24 200.89 259.142C201.216 259.044 201.512 258.863 201.776 258.599C202.32 258.055 202.235 257.687 201.52 257.495Z" fill="white"/>
<path d="M204.486 260.446C204.102 260.863 203.955 261.202 204.046 261.462C204.139 261.723 204.378 261.905 204.761 262.008C205.015 262.076 205.277 262.11 205.546 262.111C205.815 262.111 206.114 262.087 206.441 262.037L206.433 262.577C206.056 262.652 205.67 262.689 205.275 262.688C204.883 262.685 204.519 262.638 204.184 262.548C203.675 262.412 203.324 262.215 203.129 261.956C202.94 261.696 202.898 261.395 203.003 261.053C203.112 260.712 203.36 260.348 203.746 259.961C204.121 259.586 204.548 259.276 205.026 259.031C205.507 258.786 206.002 258.624 206.51 258.545C207.017 258.466 207.505 258.489 207.972 258.614C208.628 258.79 208.98 259.094 209.027 259.524C209.079 259.954 208.82 260.454 208.25 261.024C208.186 261.088 208.123 261.149 208.061 261.207C207.999 261.265 207.942 261.315 207.891 261.358L204.486 260.446ZM207.451 259.147C207.087 259.05 206.692 259.063 206.265 259.188C205.838 259.313 205.41 259.567 204.981 259.951L207.512 260.629C207.879 260.25 208.053 259.933 208.033 259.68C208.018 259.425 207.824 259.247 207.451 259.147Z" fill="white"/>
<path d="M214.295 257.65C214.694 257.757 215.022 257.887 215.278 258.039C215.534 258.191 215.665 258.373 215.671 258.583C215.679 258.795 215.516 259.042 215.179 259.326L213.697 260.569C213.416 260.805 213.322 261.013 213.416 261.193C213.509 261.374 213.837 261.539 214.401 261.69L213.856 262.235C213.293 262.084 212.84 262.042 212.5 262.109C212.162 262.174 211.888 262.333 211.678 262.588L210.576 263.929C210.326 264.236 210.032 264.448 209.693 264.567C209.354 264.685 208.991 264.734 208.603 264.714C208.215 264.694 207.821 264.63 207.422 264.523L207.938 264.007C208.283 264.099 208.607 264.138 208.911 264.124C209.218 264.111 209.463 263.994 209.647 263.774L210.839 262.337C211.122 261.997 211.424 261.78 211.746 261.687C212.073 261.593 212.462 261.579 212.914 261.646C212.561 261.489 212.366 261.31 212.33 261.109C212.298 260.909 212.461 260.658 212.819 260.357L214.398 259.023C214.637 258.821 214.678 258.651 214.522 258.513C214.371 258.374 214.124 258.259 213.779 258.166L214.295 257.65Z" fill="white"/>
<path d="M130.188 259.22L129.688 258.777L130.705 258.274L128.166 254.904L128.802 254.268L134.213 253.579L134.146 254.202L129.277 254.803L131.603 257.829L140.6 253.376L141.076 253.831L130.188 259.22Z" fill="white"/>
<path d="M145.44 254.955C145.633 255.007 145.744 255.092 145.773 255.21C145.805 255.329 145.758 255.451 145.633 255.576C145.504 255.706 145.335 255.8 145.126 255.857C144.923 255.913 144.725 255.916 144.531 255.864C144.341 255.813 144.23 255.728 144.199 255.609C144.172 255.488 144.224 255.363 144.353 255.233C144.478 255.108 144.642 255.018 144.846 254.962C145.052 254.907 145.25 254.904 145.44 254.955ZM144.349 256.922L141.138 260.132L142.553 260.511L142.037 261.028L138.144 259.985L138.661 259.468L140.211 259.884L142.905 257.19L141.403 256.787L141.919 256.271L144.349 256.922Z" fill="white"/>
<path d="M150.987 258.589C151.161 258.635 151.295 258.707 151.39 258.804C151.488 258.902 151.508 259.039 151.451 259.215C151.396 259.388 151.227 259.616 150.944 259.899L148.172 262.671L147.327 262.445L150 259.772C150.217 259.555 150.353 259.394 150.408 259.29C150.47 259.184 150.415 259.108 150.244 259.062C150.103 259.024 149.929 259.018 149.724 259.043C149.522 259.07 149.28 259.14 149 259.253L146.129 262.124L145.318 261.906L147.991 259.234C148.207 259.017 148.344 258.856 148.399 258.751C148.461 258.645 148.406 258.569 148.235 258.524C148.09 258.485 147.917 258.479 147.715 258.505C147.513 258.532 147.271 258.602 146.991 258.715L144.12 261.585L143.275 261.359L147.001 257.633L147.716 257.824L147.357 258.257C147.642 258.151 147.919 258.073 148.186 258.022C148.456 257.972 148.716 257.98 148.964 258.046C149.157 258.098 149.301 258.18 149.397 258.293C149.496 258.406 149.491 258.566 149.382 258.773C149.665 258.666 149.939 258.592 150.206 258.549C150.472 258.507 150.733 258.52 150.987 258.589Z" fill="white"/>
<path d="M157.9 260.006L157.569 260.679C157.307 260.672 157.047 260.642 156.788 260.591C156.532 260.54 156.258 260.476 155.965 260.397C156.369 260.757 156.356 261.151 155.927 261.58C155.56 261.947 155.083 262.204 154.497 262.348C153.915 262.494 153.317 262.485 152.706 262.321C152.545 262.278 152.413 262.237 152.309 262.197C152.208 262.155 152.118 262.109 152.039 262.057C151.79 262.098 151.594 262.189 151.453 262.331C151.37 262.413 151.345 262.496 151.376 262.579C151.41 262.66 151.557 262.735 151.818 262.805L152.721 263.047C153.072 263.141 153.339 263.269 153.523 263.432C153.711 263.596 153.805 263.777 153.808 263.975C153.812 264.17 153.718 264.365 153.525 264.558C153.155 264.928 152.655 265.154 152.025 265.236C151.397 265.322 150.685 265.258 149.89 265.045C149.329 264.895 148.931 264.735 148.693 264.563C148.46 264.393 148.359 264.206 148.391 264.003C148.426 263.8 148.57 263.573 148.822 263.32L149.658 263.544C149.519 263.683 149.441 263.808 149.426 263.917C149.408 264.029 149.476 264.132 149.63 264.227C149.782 264.325 150.043 264.423 150.413 264.522C150.96 264.669 151.404 264.725 151.745 264.691C152.085 264.656 152.351 264.544 152.542 264.353C152.709 264.185 152.735 264.031 152.619 263.889C152.501 263.75 152.284 263.638 151.969 263.554L151.075 263.314C150.618 263.192 150.352 263.031 150.278 262.832C150.207 262.634 150.266 262.44 150.454 262.252C150.716 261.99 151.123 261.82 151.676 261.741C151.321 261.365 151.378 260.942 151.847 260.473C152.102 260.219 152.414 260.017 152.783 259.868C153.158 259.717 153.558 259.628 153.981 259.601C154.404 259.574 154.818 259.615 155.224 259.724C155.646 259.837 156.006 259.915 156.305 259.959C156.603 260.004 156.877 260.026 157.125 260.027C157.373 260.028 157.632 260.02 157.9 260.006ZM154.748 260.206C154.365 260.103 154.002 260.104 153.66 260.21C153.323 260.314 153.034 260.486 152.794 260.727C152.549 260.972 152.445 261.196 152.481 261.4C152.518 261.605 152.73 261.758 153.116 261.862C153.457 261.953 153.791 261.95 154.118 261.852C154.444 261.754 154.739 261.574 155.003 261.31C155.548 260.765 155.463 260.397 154.748 260.206Z" fill="white"/>
<path d="M159.891 260.459L161.932 263.139L161.292 263.779L155.92 264.478L155.934 263.858L160.81 263.251L158.946 260.846L159.891 260.459Z" fill="white"/>
<g filter="url(#filter9_d)">
<path d="M254.507 148.807C248.608 154.705 237.295 157.736 229.238 155.577C221.181 153.419 219.432 146.888 225.33 140.99C231.228 135.092 242.541 132.061 250.598 134.219C258.655 136.378 260.405 142.909 254.507 148.807Z" fill="#C4C4C4" fill-opacity="0.2" shape-rendering="auto"/>
</g>
<g filter="url(#filter10_d)">
<path d="M266.802 146.685C268.277 145.21 271.105 144.453 273.119 144.992L394.203 177.432C396.217 177.971 396.655 179.604 395.18 181.078V181.078C393.706 182.553 390.877 183.311 388.863 182.771L267.779 150.332C265.765 149.792 265.328 148.159 266.802 146.685V146.685Z" fill="#C4C4C4" fill-opacity="0.2" shape-rendering="auto"/>
</g>
<path fill-rule="evenodd" clip-rule="evenodd" d="M393.496 178.139L272.412 145.699C270.931 145.303 268.852 145.86 267.768 146.944C266.684 148.028 267.006 149.228 268.486 149.625L389.57 182.064C391.051 182.461 393.13 181.904 394.214 180.82C395.298 179.736 394.977 178.535 393.496 178.139ZM273.119 144.992C271.105 144.453 268.277 145.21 266.802 146.685C265.328 148.159 265.765 149.792 267.779 150.332L388.863 182.771C390.877 183.311 393.706 182.553 395.18 181.078C396.655 179.604 396.217 177.971 394.203 177.432L273.119 144.992Z" fill="white" fill-opacity="0.1"/>
<g filter="url(#filter11_d)">
<rect width="61.9218" height="7.55144" rx="3.77572" transform="matrix(0.965936 0.258783 -0.707134 0.70708 260.394 153.092)" fill="#C4C4C4" fill-opacity="0.2" shape-rendering="auto"/>
</g>
<g filter="url(#filter12_d)">
<path d="M315.21 57.5898C319.115 53.6847 326.606 51.6776 331.941 53.1068L491.33 95.8086C496.665 97.2379 497.824 101.562 493.918 105.467L476.022 123.363C472.116 127.268 464.626 129.275 459.291 127.845L299.902 85.1437C294.567 83.7145 293.408 79.3902 297.314 75.4851L315.21 57.5898Z" fill="#C4C4C4" fill-opacity="0.2" shape-rendering="auto"/>
<path d="M331.811 53.5898L491.201 96.2916C493.767 96.979 495.2 98.3244 495.606 99.8389C496.012 101.353 495.443 103.236 493.565 105.114L475.668 123.009C473.792 124.885 471.028 126.327 468.063 127.121C465.097 127.916 461.983 128.049 459.42 127.363L300.031 84.6607C297.465 83.9733 296.031 82.6279 295.625 81.1134C295.22 79.5989 295.789 77.7168 297.667 75.8386L315.564 57.9434C317.44 56.0675 320.204 54.6255 323.169 53.8309C326.134 53.0364 329.249 52.9033 331.811 53.5898Z" stroke="#3D4E55" shape-rendering="auto"/>
</g>
<path d="M353.674 79.2396C355.149 77.7651 357.977 77.0073 359.991 77.5469L463.569 105.296C465.583 105.836 466.021 107.469 464.546 108.943C463.072 110.418 460.243 111.175 458.229 110.636L354.651 82.8864C352.637 82.3468 352.2 80.714 353.674 79.2396Z" fill="#C4C4C4" fill-opacity="0.2"/>
<g filter="url(#filter13_d)">
<path d="M298.632 55.0423C300.976 52.6992 305.47 51.495 308.671 52.3525L320.421 55.5005C323.622 56.358 324.317 58.9526 321.974 61.2957L313.372 69.897C311.029 72.2401 306.534 73.4443 303.334 72.5868L291.583 69.4388C288.382 68.5813 287.687 65.9867 290.03 63.6436L298.632 55.0423Z" fill="#646D70"/>
</g>
<path d="M310.232 63.0952L303.744 61.357L307.476 60.143C307.65 60.0861 307.801 59.9926 307.893 59.8832C307.986 59.7737 308.013 59.6572 307.969 59.5593C307.926 59.4614 307.814 59.3901 307.66 59.3611C307.505 59.3321 307.321 59.3478 307.146 59.4047L302.008 61.0746C301.97 61.0888 301.934 61.1045 301.898 61.1215C301.878 61.1415 301.866 61.1535 301.808 61.1633C301.737 61.2026 301.675 61.248 301.625 61.2972C301.577 61.3467 301.541 61.3991 301.52 61.4516C301.5 61.4717 301.488 61.4837 301.506 61.514C301.499 61.5387 301.496 61.5632 301.495 61.5872L301.827 64.7228C301.834 64.7818 301.862 64.8354 301.91 64.8798C301.957 64.9242 302.024 64.9584 302.104 64.9798C302.232 65.0143 302.389 65.0149 302.547 64.9815C302.636 64.9627 302.723 64.9337 302.803 64.8961C302.883 64.8585 302.955 64.8131 303.014 64.7624C303.073 64.7117 303.118 64.6568 303.147 64.6008C303.176 64.5447 303.188 64.4887 303.182 64.4359L302.943 62.1579L309.431 63.8961C309.576 63.935 309.757 63.9301 309.935 63.8825C310.113 63.8349 310.272 63.7484 310.379 63.6422C310.485 63.536 310.529 63.4187 310.501 63.3161C310.474 63.2136 310.377 63.1341 310.232 63.0952Z" fill="white" fill-opacity="0.6"/>
<g filter="url(#filter14_d)">
<path d="M239.889 76.3056L424.433 125.746L392.393 157.783L207.85 108.342L239.889 76.3056Z" fill="#16272E" fill-opacity="0.3" shape-rendering="auto"/>
</g>
<path fill-rule="evenodd" clip-rule="evenodd" d="M422.76 126.195L240.148 77.2714L209.523 107.894L392.135 156.817L422.76 126.195ZM239.889 76.3056L207.85 108.342L392.393 157.783L424.433 125.746L239.889 76.3056Z" fill="white"/>
<path d="M422.583 123.897L426.96 125.069L423.756 128.273L419.379 127.101L422.583 123.897Z" fill="black"/>
<path fill-rule="evenodd" clip-rule="evenodd" d="M425.286 125.518L422.842 124.863L421.052 126.652L423.497 127.307L425.286 125.518ZM422.583 123.897L419.379 127.101L423.756 128.273L426.96 125.069L422.583 123.897Z" fill="white"/>
<path d="M392.341 155.061L396.718 156.234L393.514 159.437L389.137 158.265L392.341 155.061Z" fill="black"/>
<path fill-rule="evenodd" clip-rule="evenodd" d="M395.045 156.682L392.6 156.027L390.81 157.817L393.255 158.472L395.045 156.682ZM392.341 155.061L389.137 158.265L393.514 159.437L396.718 156.234L392.341 155.061Z" fill="white"/>
<path d="M208.527 105.816L212.904 106.988L209.7 110.192L205.323 109.02L208.527 105.816Z" fill="black"/>
<path fill-rule="evenodd" clip-rule="evenodd" d="M211.231 107.437L208.786 106.782L206.996 108.571L209.441 109.226L211.231 107.437ZM208.527 105.816L205.323 109.02L209.7 110.192L212.904 106.988L208.527 105.816Z" fill="white"/>
<path d="M239.498 74.8469L243.875 76.0194L240.671 79.2231L236.294 78.0505L239.498 74.8469Z" fill="black"/>
<path fill-rule="evenodd" clip-rule="evenodd" d="M242.202 76.4677L239.757 75.8127L237.968 77.6023L240.412 78.2572L242.202 76.4677ZM239.498 74.8469L236.294 78.0505L240.671 79.2231L243.875 76.0194L239.498 74.8469Z" fill="white"/>
<path d="M242.019 100.486C242.463 100.605 242.872 100.639 243.246 100.589C243.624 100.539 243.914 100.413 244.118 100.209C244.248 100.079 244.323 99.9595 244.344 99.8504C244.372 99.7395 244.318 99.6174 244.182 99.4841C244.052 99.349 243.815 99.1849 243.469 98.9918C243.128 98.8037 242.854 98.6173 242.647 98.4327C242.443 98.2491 242.338 98.0525 242.333 97.8429C242.33 97.6343 242.46 97.4 242.72 97.1397C243.099 96.7608 243.618 96.5161 244.277 96.4058C244.936 96.2954 245.623 96.336 246.338 96.5275C246.84 96.6621 247.227 96.8285 247.499 97.0269C247.774 97.2224 247.972 97.4261 248.093 97.6379L247.087 98.0409C246.965 97.8646 246.799 97.7019 246.591 97.5528C246.389 97.4019 246.099 97.2758 245.72 97.1743C245.268 97.0532 244.894 97.0177 244.599 97.0678C244.311 97.116 244.085 97.2222 243.921 97.3862C243.796 97.5107 243.74 97.6263 243.75 97.7332C243.768 97.8383 243.858 97.9558 244.022 98.0858C244.189 98.2129 244.436 98.3724 244.764 98.5641C245.082 98.75 245.337 98.9365 245.527 99.1236C245.717 99.3108 245.805 99.5138 245.792 99.7327C245.786 99.9497 245.641 100.2 245.358 100.482C245.039 100.802 244.653 101.029 244.201 101.162C243.752 101.293 243.28 101.351 242.785 101.337C242.293 101.323 241.822 101.256 241.369 101.135C240.813 100.986 240.393 100.798 240.11 100.572C239.831 100.346 239.643 100.111 239.545 99.8663L240.677 99.5133C240.768 99.7207 240.923 99.911 241.142 100.084C241.367 100.256 241.659 100.39 242.019 100.486Z" fill="white"/>
<path d="M249.146 100.599C248.684 101.099 248.508 101.506 248.617 101.818C248.73 102.132 249.016 102.35 249.476 102.473C249.781 102.555 250.095 102.596 250.418 102.596C250.741 102.597 251.099 102.567 251.492 102.508L251.482 103.156C251.03 103.246 250.566 103.291 250.093 103.289C249.622 103.285 249.185 103.229 248.783 103.121C248.173 102.958 247.751 102.721 247.517 102.411C247.29 102.099 247.24 101.738 247.367 101.327C247.497 100.917 247.794 100.481 248.258 100.017C248.708 99.567 249.22 99.1949 249.793 98.9004C250.371 98.6069 250.965 98.4126 251.574 98.3177C252.183 98.2227 252.768 98.2503 253.328 98.4004C254.117 98.6116 254.539 98.9757 254.595 99.4928C254.657 100.008 254.347 100.608 253.662 101.292C253.586 101.369 253.51 101.442 253.436 101.511C253.361 101.581 253.293 101.642 253.232 101.693L249.146 100.599ZM252.703 99.0399C252.267 98.9229 251.792 98.9393 251.28 99.0889C250.768 99.2386 250.255 99.5439 249.74 100.005L252.777 100.818C253.218 100.363 253.426 99.9829 253.402 99.6788C253.384 99.3729 253.152 99.16 252.703 99.0399Z" fill="white"/>
<path d="M258.767 104.36C258.589 104.538 258.498 104.679 258.493 104.781C258.491 104.881 258.553 104.973 258.68 105.057L257.859 105.547C257.606 105.447 257.424 105.321 257.311 105.169C257.203 105.018 257.199 104.831 257.3 104.607C256.871 104.757 256.436 104.84 255.995 104.854C255.554 104.869 255.137 104.823 254.743 104.718C254.128 104.553 253.771 104.296 253.67 103.946C253.569 103.597 253.726 103.214 254.142 102.798C254.606 102.334 255.21 102.044 255.953 101.928C256.703 101.809 257.544 101.875 258.475 102.125L259.362 102.362L259.701 102.023C260.009 101.714 260.103 101.462 259.982 101.264C259.865 101.068 259.584 100.91 259.14 100.791C258.935 100.736 258.675 100.69 258.36 100.652C258.049 100.615 257.698 100.595 257.305 100.59L257.615 99.9201C258.095 99.9159 258.531 99.9377 258.924 99.9856C259.317 100.034 259.664 100.098 259.966 100.179C260.75 100.389 261.206 100.678 261.333 101.045C261.464 101.414 261.303 101.824 260.851 102.277L258.767 104.36ZM255.666 104.191C255.948 104.266 256.275 104.286 256.645 104.249C257.019 104.212 257.387 104.121 257.749 103.974L258.831 102.892L258.02 102.675C257.375 102.502 256.836 102.46 256.405 102.549C255.976 102.635 255.623 102.816 255.346 103.094C254.814 103.625 254.921 103.991 255.666 104.191Z" fill="white"/>
<path d="M260.246 106.058L260.848 105.455L261.775 105.704L265.042 102.437L264.115 102.189L264.717 101.586L266.497 102.063L265.652 103.165C266.254 102.857 266.822 102.648 267.356 102.541C267.897 102.431 268.438 102.448 268.979 102.593C269.157 102.641 269.303 102.693 269.419 102.749C269.538 102.806 269.654 102.869 269.765 102.939L268.022 104.462L267.164 104.232L268.097 103.299L268.092 103.297C267.176 103.052 266.04 103.355 264.683 104.207L262.888 106.002L264.128 106.334L263.526 106.937L260.246 106.058Z" fill="white"/>
<path d="M270.559 108.084C270.856 108.164 271.168 108.202 271.494 108.2C271.826 108.196 272.162 108.166 272.502 108.11L272.505 108.783C272.071 108.874 271.613 108.92 271.133 108.921C270.659 108.919 270.233 108.868 269.854 108.766C269.24 108.602 268.811 108.365 268.566 108.056C268.326 107.747 268.266 107.389 268.386 106.98C268.506 106.571 268.799 106.133 269.266 105.666C269.718 105.214 270.235 104.841 270.817 104.549C271.405 104.255 272.021 104.063 272.664 103.973C273.307 103.884 273.937 103.922 274.556 104.087C275.352 104.301 275.868 104.661 276.104 105.169L275.047 105.558C274.793 105.16 274.409 104.893 273.895 104.755C273.385 104.618 272.829 104.645 272.228 104.835C271.626 105.026 271.037 105.409 270.46 105.986C269.88 106.566 269.625 107.027 269.695 107.368C269.769 107.711 270.057 107.949 270.559 108.084Z" fill="white"/>
<path d="M281.552 103.713L279.091 106.174C279.561 106.013 280.024 105.92 280.48 105.895C280.94 105.871 281.347 105.907 281.703 106.002C282.29 106.16 282.606 106.393 282.649 106.702C282.695 107.009 282.51 107.37 282.095 107.785L278.84 111.039L277.728 110.741L280.91 107.559C281.178 107.291 281.293 107.076 281.253 106.915C281.22 106.752 281.034 106.625 280.694 106.533C280.369 106.446 279.995 106.441 279.571 106.518C279.15 106.595 278.771 106.7 278.434 106.832L275.201 110.064L274.088 109.766L280.35 103.504L281.552 103.713Z" fill="white"/>
<path d="M278.966 113.031L279.658 112.34L285.454 113.892L284.762 114.584L278.966 113.031Z" fill="white"/>
<path d="M296.676 110.013C296.884 110.069 297.045 110.156 297.159 110.272C297.277 110.39 297.301 110.554 297.232 110.765C297.166 110.973 296.963 111.247 296.624 111.586L293.297 114.913L292.283 114.641L295.491 111.434C295.751 111.173 295.914 110.98 295.981 110.855C296.055 110.728 295.989 110.636 295.784 110.582C295.614 110.536 295.406 110.529 295.16 110.559C294.917 110.591 294.627 110.675 294.291 110.811L290.846 114.256L289.872 113.995L293.08 110.788C293.34 110.527 293.503 110.334 293.57 110.209C293.644 110.082 293.578 109.99 293.373 109.936C293.199 109.889 292.991 109.882 292.749 109.914C292.506 109.945 292.216 110.029 291.88 110.165L288.435 113.61L287.42 113.338L291.892 108.867L292.75 109.096L292.319 109.616C292.662 109.489 292.993 109.395 293.314 109.333C293.639 109.273 293.95 109.283 294.247 109.363C294.479 109.425 294.652 109.523 294.767 109.658C294.886 109.794 294.88 109.986 294.75 110.234C295.088 110.106 295.418 110.017 295.738 109.967C296.058 109.916 296.37 109.932 296.676 110.013Z" fill="white"/>
<path d="M301.899 111.413C302.772 111.647 303.222 112.036 303.25 112.582C303.282 113.128 302.943 113.756 302.233 114.466C301.772 114.927 301.26 115.307 300.698 115.604C300.139 115.903 299.562 116.098 298.966 116.189C298.37 116.281 297.783 116.249 297.203 116.093C296.33 115.859 295.875 115.469 295.84 114.921C295.808 114.375 296.147 113.747 296.857 113.037C297.321 112.573 297.831 112.193 298.386 111.897C298.949 111.6 299.528 111.405 300.124 111.314C300.724 111.224 301.315 111.257 301.899 111.413ZM301.249 112.062C300.747 111.927 300.23 111.964 299.698 112.173C299.168 112.379 298.614 112.772 298.034 113.352C297.46 113.926 297.16 114.386 297.134 114.73C297.11 115.072 297.35 115.31 297.852 115.444C298.354 115.579 298.868 115.543 299.394 115.336C299.922 115.126 300.476 114.731 301.056 114.151C301.633 113.574 301.933 113.115 301.956 112.773C301.98 112.431 301.744 112.194 301.249 112.062Z" fill="white"/>
<path d="M311.885 111.818L312.901 112.214L306.63 118.484L305.65 118.222L306.13 117.624C305.245 117.961 304.443 118.033 303.724 117.841C303.199 117.7 302.862 117.486 302.713 117.198C302.571 116.909 302.592 116.567 302.777 116.172C302.962 115.777 303.286 115.347 303.75 114.883C304.202 114.431 304.699 114.055 305.239 113.755C305.785 113.453 306.338 113.248 306.897 113.139C307.46 113.032 307.995 113.046 308.501 113.182C309.158 113.358 309.519 113.67 309.586 114.118L311.885 111.818ZM308.15 113.9C307.671 113.772 307.16 113.812 306.617 114.022C306.079 114.232 305.521 114.626 304.944 115.203C304.369 115.777 304.062 116.235 304.02 116.575C303.982 116.916 304.188 117.147 304.636 117.267C304.957 117.353 305.299 117.361 305.664 117.29C306.035 117.217 306.391 117.112 306.73 116.973L308.915 114.788C308.927 114.576 308.867 114.393 308.736 114.24C308.612 114.085 308.417 113.971 308.15 113.9Z" fill="white"/>
<path d="M314.424 114.903L311.276 118.051C310.993 118.334 310.866 118.558 310.896 118.724C310.933 118.888 311.116 119.014 311.444 119.102C311.753 119.185 312.115 119.197 312.53 119.14C312.949 119.084 313.33 118.985 313.672 118.843L316.939 115.577L318.052 115.875L313.58 120.346L312.624 120.09L313.132 119.479C312.67 119.642 312.204 119.736 311.734 119.76C311.267 119.786 310.854 119.751 310.495 119.654C309.904 119.496 309.579 119.26 309.52 118.947C309.465 118.634 309.645 118.27 310.061 117.855L313.311 114.605L314.424 114.903Z" fill="white"/>
<path d="M324.57 115.34L319.453 120.457C319.238 120.672 319.176 120.849 319.267 120.988C319.361 121.124 319.551 121.231 319.837 121.307C320.018 121.356 320.203 121.389 320.391 121.407C320.585 121.424 320.786 121.429 320.992 121.423L320.701 122.082C320.466 122.102 320.196 122.101 319.893 122.081C319.59 122.061 319.278 122.008 318.958 121.922C318.382 121.767 318.042 121.527 317.936 121.202C317.835 120.877 317.989 120.509 318.399 120.099L322.837 115.662L320.977 115.163L321.596 114.544L324.57 115.34Z" fill="white"/>
<path d="M325.598 121.081C325.137 121.581 324.961 121.988 325.069 122.3C325.182 122.614 325.468 122.832 325.928 122.955C326.233 123.037 326.547 123.078 326.87 123.079C327.193 123.079 327.551 123.049 327.944 122.99L327.935 123.638C327.482 123.728 327.019 123.773 326.545 123.771C326.074 123.767 325.637 123.711 325.236 123.604C324.625 123.44 324.203 123.203 323.969 122.893C323.742 122.581 323.692 122.22 323.819 121.809C323.949 121.4 324.247 120.963 324.71 120.499C325.16 120.049 325.672 119.677 326.246 119.383C326.823 119.089 327.417 118.895 328.026 118.8C328.636 118.705 329.22 118.733 329.781 118.883C330.569 119.094 330.991 119.458 331.047 119.975C331.11 120.49 330.799 121.09 330.114 121.775C330.038 121.851 329.963 121.924 329.888 121.994C329.813 122.063 329.745 122.124 329.684 122.176L325.598 121.081ZM329.156 119.522C328.719 119.405 328.245 119.421 327.733 119.571C327.22 119.721 326.707 120.026 326.192 120.487L329.229 121.301C329.67 120.845 329.878 120.465 329.854 120.161C329.837 119.855 329.604 119.642 329.156 119.522Z" fill="white"/>
<path d="M372.544 123.994C374.887 121.651 379.381 120.447 382.582 121.304L400.168 126.016C403.369 126.873 404.064 129.468 401.72 131.811L388.847 144.684C386.503 147.027 382.009 148.231 378.808 147.374L361.223 142.662C358.022 141.805 357.327 139.21 359.67 136.867L372.544 123.994Z" fill="#C4C4C4" fill-opacity="0.2"/>
<path d="M383.373 140.853L382.104 136.118C383.535 135.619 384.783 134.876 385.677 133.981C386.748 132.911 387.181 131.754 386.906 130.72C386.631 129.687 385.672 128.902 384.211 128.511C382.751 128.12 380.958 128.169 379.17 128.648C377.381 129.127 375.807 129.979 374.736 131.05C373.667 132.119 373.231 133.279 373.507 134.311C373.783 135.344 374.739 136.128 376.202 136.52C377.423 136.847 378.874 136.867 380.361 136.585L381.631 141.319C381.635 141.333 381.643 141.346 381.656 141.356C381.669 141.366 381.685 141.374 381.705 141.38C381.724 141.385 381.747 141.387 381.77 141.387C381.794 141.386 381.819 141.382 381.843 141.376L383.218 141.008C383.243 141.002 383.266 140.993 383.286 140.981C383.307 140.97 383.325 140.957 383.34 140.942C383.354 140.928 383.364 140.913 383.37 140.898C383.376 140.882 383.377 140.867 383.373 140.853V140.853ZM380.98 135.404C379.643 135.761 378.307 135.798 377.216 135.506C376.126 135.213 375.412 134.628 375.204 133.856C374.998 133.083 375.324 132.219 376.122 131.421C376.92 130.623 378.097 129.985 379.433 129.627C380.771 129.27 382.106 129.233 383.197 129.525C384.287 129.818 385.004 130.402 385.21 131.175C385.415 131.948 385.09 132.812 384.291 133.61C383.493 134.408 382.317 135.046 380.98 135.404Z" fill="white" fill-opacity="0.8"/>
<defs>
<filter id="filter0_di" x="54.6196" y="154.474" width="543.883" height="416.576" filterUnits="userSpaceOnUse" color-interpolation-filters="sRGB">
<feFlood flood-opacity="0" result="BackgroundImageFix"/>
<feColorMatrix in="SourceAlpha" type="matrix" values="0 0 0 0 0 0 0 0 0 0 0 0 0 0 0 0 0 0 127 0" result="hardAlpha"/>
<feOffset dy="14"/>
<feGaussianBlur stdDeviation="18"/>
<feComposite in2="hardAlpha" operator="out"/>
<feColorMatrix type="matrix" values="0 0 0 0 0 0 0 0 0 0 0 0 0 0 0 0 0 0 0.25 0"/>
<feBlend mode="normal" in2="BackgroundImageFix" result="effect1_dropShadow"/>
<feBlend mode="normal" in="SourceGraphic" in2="effect1_dropShadow" result="shape"/>
<feColorMatrix in="SourceAlpha" type="matrix" values="0 0 0 0 0 0 0 0 0 0 0 0 0 0 0 0 0 0 127 0" result="hardAlpha"/>
<feOffset dy="1"/>
<feGaussianBlur stdDeviation="20"/>
<feComposite in2="hardAlpha" operator="arithmetic" k2="-1" k3="1"/>
<feColorMatrix type="matrix" values="0 0 0 0 0.183333 0 0 0 0 0.419048 0 0 0 0 0.458333 0 0 0 0.25 0"/>
<feBlend mode="normal" in2="shape" result="effect2_innerShadow"/>
</filter>
<filter id="filter1_b" x="75.3708" y="111.282" width="483.883" height="356.576" filterUnits="userSpaceOnUse" color-interpolation-filters="sRGB">
<feFlood flood-opacity="0" result="BackgroundImageFix"/>
<feGaussianBlur in="BackgroundImage" stdDeviation="3"/>
<feComposite in2="SourceAlpha" operator="in" result="effect1_backgroundBlur"/>
<feBlend mode="normal" in="SourceGraphic" in2="effect1_backgroundBlur" result="shape"/>
</filter>
<filter id="filter2_d" x="70.0852" y="294.335" width="49.9769" height="37.8018" filterUnits="userSpaceOnUse" color-interpolation-filters="sRGB">
<feFlood flood-opacity="0" result="BackgroundImageFix"/>
<feColorMatrix in="SourceAlpha" type="matrix" values="0 0 0 0 0 0 0 0 0 0 0 0 0 0 0 0 0 0 127 0" result="hardAlpha"/>
<feOffset dy="5"/>
<feGaussianBlur stdDeviation="5"/>
<feComposite in2="hardAlpha" operator="out"/>
<feColorMatrix type="matrix" values="0 0 0 0 0 0 0 0 0 0 0 0 0 0 0 0 0 0 0.25 0"/>
<feBlend mode="normal" in2="BackgroundImageFix" result="effect1_dropShadow"/>
<feBlend mode="normal" in="SourceGraphic" in2="effect1_dropShadow" result="shape"/>
</filter>
<filter id="filter3_d" x="56.3318" y="286.588" width="196.952" height="85.301" filterUnits="userSpaceOnUse" color-interpolation-filters="sRGB">
<feFlood flood-opacity="0" result="BackgroundImageFix"/>
<feColorMatrix in="SourceAlpha" type="matrix" values="0 0 0 0 0 0 0 0 0 0 0 0 0 0 0 0 0 0 127 0" result="hardAlpha"/>
<feOffset dy="5"/>
<feGaussianBlur stdDeviation="5"/>
<feComposite in2="hardAlpha" operator="out"/>
<feColorMatrix type="matrix" values="0 0 0 0 0 0 0 0 0 0 0 0 0 0 0 0 0 0 0.25 0"/>
<feBlend mode="normal" in2="BackgroundImageFix" result="effect1_dropShadow"/>
<feBlend mode="normal" in="SourceGraphic" in2="effect1_dropShadow" result="shape"/>
</filter>
<filter id="filter4_d" x="99.9526" y="302.336" width="49.9769" height="37.8018" filterUnits="userSpaceOnUse" color-interpolation-filters="sRGB">
<feFlood flood-opacity="0" result="BackgroundImageFix"/>
<feColorMatrix in="SourceAlpha" type="matrix" values="0 0 0 0 0 0 0 0 0 0 0 0 0 0 0 0 0 0 127 0" result="hardAlpha"/>
<feOffset dy="5"/>
<feGaussianBlur stdDeviation="5"/>
<feComposite in2="hardAlpha" operator="out"/>
<feColorMatrix type="matrix" values="0 0 0 0 0 0 0 0 0 0 0 0 0 0 0 0 0 0 0.25 0"/>
<feBlend mode="normal" in2="BackgroundImageFix" result="effect1_dropShadow"/>
<feBlend mode="normal" in="SourceGraphic" in2="effect1_dropShadow" result="shape"/>
</filter>
<filter id="filter5_d" x="159.687" y="318.339" width="49.9769" height="37.8018" filterUnits="userSpaceOnUse" color-interpolation-filters="sRGB">
<feFlood flood-opacity="0" result="BackgroundImageFix"/>
<feColorMatrix in="SourceAlpha" type="matrix" values="0 0 0 0 0 0 0 0 0 0 0 0 0 0 0 0 0 0 127 0" result="hardAlpha"/>
<feOffset dy="5"/>
<feGaussianBlur stdDeviation="5"/>
<feComposite in2="hardAlpha" operator="out"/>
<feColorMatrix type="matrix" values="0 0 0 0 0 0 0 0 0 0 0 0 0 0 0 0 0 0 0.25 0"/>
<feBlend mode="normal" in2="BackgroundImageFix" result="effect1_dropShadow"/>
<feBlend mode="normal" in="SourceGraphic" in2="effect1_dropShadow" result="shape"/>
</filter>
<filter id="filter6_d" x="189.553" y="326.341" width="49.9769" height="37.8018" filterUnits="userSpaceOnUse" color-interpolation-filters="sRGB">
<feFlood flood-opacity="0" result="BackgroundImageFix"/>
<feColorMatrix in="SourceAlpha" type="matrix" values="0 0 0 0 0 0 0 0 0 0 0 0 0 0 0 0 0 0 127 0" result="hardAlpha"/>
<feOffset dy="5"/>
<feGaussianBlur stdDeviation="5"/>
<feComposite in2="hardAlpha" operator="out"/>
<feColorMatrix type="matrix" values="0 0 0 0 0 0 0 0 0 0 0 0 0 0 0 0 0 0 0.25 0"/>
<feBlend mode="normal" in2="BackgroundImageFix" result="effect1_dropShadow"/>
<feBlend mode="normal" in="SourceGraphic" in2="effect1_dropShadow" result="shape"/>
</filter>
<filter id="filter7_d" x="144.144" y="301.465" width="37.9769" height="25.8018" filterUnits="userSpaceOnUse" color-interpolation-filters="sRGB">
<feFlood flood-opacity="0" result="BackgroundImageFix"/>
<feColorMatrix in="SourceAlpha" type="matrix" values="0 0 0 0 0 0 0 0 0 0 0 0 0 0 0 0 0 0 127 0" result="hardAlpha"/>
<feOffset dy="4"/>
<feGaussianBlur stdDeviation="2"/>
<feComposite in2="hardAlpha" operator="out"/>
<feColorMatrix type="matrix" values="0 0 0 0 0 0 0 0 0 0 0 0 0 0 0 0 0 0 0.25 0"/>
<feBlend mode="normal" in2="BackgroundImageFix" result="effect1_dropShadow"/>
<feBlend mode="normal" in="SourceGraphic" in2="effect1_dropShadow" result="shape"/>
</filter>
<filter id="filter8_d" x="96.2032" y="161.271" width="302.214" height="179.299" filterUnits="userSpaceOnUse" color-interpolation-filters="sRGB">
<feFlood flood-opacity="0" result="BackgroundImageFix"/>
<feColorMatrix in="SourceAlpha" type="matrix" values="0 0 0 0 0 0 0 0 0 0 0 0 0 0 0 0 0 0 127 0" result="hardAlpha"/>
<feOffset dy="18"/>
<feGaussianBlur stdDeviation="5"/>
<feComposite in2="hardAlpha" operator="out"/>
<feColorMatrix type="matrix" values="0 0 0 0 0 0 0 0 0 0 0 0 0 0 0 0 0 0 0.25 0"/>
<feBlend mode="normal" in2="BackgroundImageFix" result="effect1_dropShadow"/>
<feBlend mode="normal" in="SourceGraphic" in2="effect1_dropShadow" result="shape"/>
</filter>
<filter id="filter9_d" x="211.837" y="133.524" width="56.162" height="50.7496" filterUnits="userSpaceOnUse" color-interpolation-filters="sRGB">
<feFlood flood-opacity="0" result="BackgroundImageFix"/>
<feColorMatrix in="SourceAlpha" type="matrix" values="0 0 0 0 0 0 0 0 0 0 0 0 0 0 0 0 0 0 127 0" result="hardAlpha"/>
<feOffset dy="18"/>
<feGaussianBlur stdDeviation="5"/>
<feComposite in2="hardAlpha" operator="out"/>
<feColorMatrix type="matrix" values="0 0 0 0 0 0 0 0 0 0 0 0 0 0 0 0 0 0 0.25 0"/>
<feBlend mode="normal" in2="BackgroundImageFix" result="effect1_dropShadow"/>
<feBlend mode="normal" in="SourceGraphic" in2="effect1_dropShadow" result="shape"/>
</filter>
<filter id="filter10_d" x="260.929" y="144.818" width="140.124" height="50.1268" filterUnits="userSpaceOnUse" color-interpolation-filters="sRGB">
<feFlood flood-opacity="0" result="BackgroundImageFix"/>
<feColorMatrix in="SourceAlpha" type="matrix" values="0 0 0 0 0 0 0 0 0 0 0 0 0 0 0 0 0 0 127 0" result="hardAlpha"/>
<feOffset dy="7"/>
<feGaussianBlur stdDeviation="2.5"/>
<feComposite in2="hardAlpha" operator="out"/>
<feColorMatrix type="matrix" values="0 0 0 0 0 0 0 0 0 0 0 0 0 0 0 0 0 0 0.25 0"/>
<feBlend mode="normal" in2="BackgroundImageFix" result="effect1_dropShadow"/>
<feBlend mode="normal" in="SourceGraphic" in2="effect1_dropShadow" result="shape"/>
</filter>
<filter id="filter11_d" x="251.851" y="153.895" width="71.5588" height="31.7575" filterUnits="userSpaceOnUse" color-interpolation-filters="sRGB">
<feFlood flood-opacity="0" result="BackgroundImageFix"/>
<feColorMatrix in="SourceAlpha" type="matrix" values="0 0 0 0 0 0 0 0 0 0 0 0 0 0 0 0 0 0 127 0" result="hardAlpha"/>
<feOffset dy="7"/>
<feGaussianBlur stdDeviation="2.5"/>
<feComposite in2="hardAlpha" operator="out"/>
<feColorMatrix type="matrix" values="0 0 0 0 0 0 0 0 0 0 0 0 0 0 0 0 0 0 0.25 0"/>
<feBlend mode="normal" in2="BackgroundImageFix" result="effect1_dropShadow"/>
<feBlend mode="normal" in="SourceGraphic" in2="effect1_dropShadow" result="shape"/>
</filter>
<filter id="filter12_d" x="286.001" y="50.6461" width="219.23" height="93.6601" filterUnits="userSpaceOnUse" color-interpolation-filters="sRGB">
<feFlood flood-opacity="0" result="BackgroundImageFix"/>
<feColorMatrix in="SourceAlpha" type="matrix" values="0 0 0 0 0 0 0 0 0 0 0 0 0 0 0 0 0 0 127 0" result="hardAlpha"/>
<feOffset dy="7"/>
<feGaussianBlur stdDeviation="4.5"/>
<feComposite in2="hardAlpha" operator="out"/>
<feColorMatrix type="matrix" values="0 0 0 0 0 0 0 0 0 0 0 0 0 0 0 0 0 0 0.25 0"/>
<feBlend mode="normal" in2="BackgroundImageFix" result="effect1_dropShadow"/>
<feBlend mode="normal" in="SourceGraphic" in2="effect1_dropShadow" result="shape"/>
</filter>
<filter id="filter13_d" x="284.643" y="52.076" width="42.7185" height="28.7872" filterUnits="userSpaceOnUse" color-interpolation-filters="sRGB">
<feFlood flood-opacity="0" result="BackgroundImageFix"/>
<feColorMatrix in="SourceAlpha" type="matrix" values="0 0 0 0 0 0 0 0 0 0 0 0 0 0 0 0 0 0 127 0" result="hardAlpha"/>
<feOffset dy="4"/>
<feGaussianBlur stdDeviation="2"/>
<feComposite in2="hardAlpha" operator="out"/>
<feColorMatrix type="matrix" values="0 0 0 0 0 0 0 0 0 0 0 0 0 0 0 0 0 0 0.25 0"/>
<feBlend mode="normal" in2="BackgroundImageFix" result="effect1_dropShadow"/>
<feBlend mode="normal" in="SourceGraphic" in2="effect1_dropShadow" result="shape"/>
</filter>
<filter id="filter14_d" x="200.85" y="76.3056" width="230.583" height="96.4777" filterUnits="userSpaceOnUse" color-interpolation-filters="sRGB">
<feFlood flood-opacity="0" result="BackgroundImageFix"/>
<feColorMatrix in="SourceAlpha" type="matrix" values="0 0 0 0 0 0 0 0 0 0 0 0 0 0 0 0 0 0 127 0" result="hardAlpha"/>
<feOffset dy="8"/>
<feGaussianBlur stdDeviation="3.5"/>
<feComposite in2="hardAlpha" operator="out"/>
<feColorMatrix type="matrix" values="0 0 0 0 0 0 0 0 0 0 0 0 0 0 0 0 0 0 0.25 0"/>
<feBlend mode="normal" in2="BackgroundImageFix" result="effect1_dropShadow"/>
<feBlend mode="normal" in="SourceGraphic" in2="effect1_dropShadow" result="shape"/>
</filter>
<linearGradient id="paint0_linear" x1="478.48" y1="196.854" x2="382.189" y2="556.274" gradientUnits="userSpaceOnUse">
<stop stop-opacity="0"/>
<stop offset="0.755208" stop-color="#16282E"/>
</linearGradient>
<linearGradient id="paint1_linear" x1="478.48" y1="196.854" x2="382.189" y2="556.274" gradientUnits="userSpaceOnUse">
<stop stop-color="white" stop-opacity="0.29"/>
<stop offset="1" stop-color="white" stop-opacity="0.23"/>
</linearGradient>
<linearGradient id="paint2_linear" x1="168.194" y1="310.853" x2="159.71" y2="342.524" gradientUnits="userSpaceOnUse">
<stop stop-color="white"/>
<stop offset="1" stop-color="white" stop-opacity="0.27"/>
</linearGradient>
</defs>
</svg>
